<svg id="Layer_1" data-name="Layer 1" xmlns="http://www.w3.org/2000/svg" viewBox="0 0 2474.31 677.8"><defs><style>.cls-1,.cls-2,.cls-3,.cls-4{fill:none;stroke-miterlimit:10;}.cls-1,.cls-3{stroke:#ed1c24;}.cls-1,.cls-2{stroke-width:0.25px;}.cls-2,.cls-4{stroke:#231f20;}.cls-3,.cls-4{stroke-width:0.25px;}</style></defs><line class="cls-1" x1="200.38" y1="98.77" x2="625.04" y2="98.77"/><line class="cls-1" x1="200.38" y1="578.87" x2="625.04" y2="578.87"/><line class="cls-1" x1="98.83" y1="200.27" x2="98.83" y2="477.22"/><line class="cls-1" x1="726.58" y1="200.27" x2="726.58" y2="477.22"/><rect class="cls-1" x="200.38" y="200.27" width="424.66" height="276.95"/><line class="cls-1" x1="98.83" y1="477.22" x2="200.38" y2="477.22"/><line class="cls-1" x1="625.04" y1="200.27" x2="726.58" y2="200.27"/><line class="cls-1" x1="200.38" y1="98.77" x2="200.38" y2="200.32"/><path class="cls-2" d="M845.08,541.39V304.61l-98.71-20.09h-9.23V228.18H654.05v56.34h-9.23V183L624.74,84.38H240.25L220.16,183v9.2H163.8v83.09h56.36v9.2H118.62L19.91,304.61V541.39l98.71,20.08h9.23v56.7h83.08v-56.7h9.23V663.12l20.09,98.8H624.74l20.08-98.8v-9h56.37V571H644.82v-9.56H746.37Z" transform="translate(-19.79 -84.25)"/><line class="cls-1" x1="625.04" y1="477.22" x2="625.04" y2="578.77"/><line class="cls-3" x1="1602.98" y1="488.97" x2="1602.98" y2="198.52"/><rect class="cls-3" x="1078.73" y="198.52" width="435.68" height="290.45"/><line class="cls-3" x1="1514.55" y1="576.95" x2="1078.87" y2="576.95"/><line class="cls-3" x1="1514.55" y1="110.86" x2="1078.87" y2="110.86"/><line class="cls-3" x1="990.15" y1="198.52" x2="990.15" y2="488.97"/><polygon class="cls-4" points="1514.55 568.27 1571.03 568.27 1571.03 499.06 1514.55 499.06 1514.55 489.05 1514.4 488.97 1602.98 488.97 1672.6 468.61 1672.6 218.79 1602.98 198.52 1593.63 198.52 1593.63 142.9 1524.43 142.9 1524.43 198.52 1514.4 198.52 1514.55 198.44 1514.55 110.86 1494.27 37.92 1099.14 37.92 1078.87 110.86 1078.87 119.28 1022.25 119.28 1022.25 188.48 1078.87 188.48 1078.87 198.44 1078.73 198.52 990.15 198.52 920.53 218.79 920.53 468.61 990.15 488.97 999.43 488.97 999.43 545.6 1068.63 545.6 1068.63 488.97 1078.73 488.97 1078.87 489.05 1078.87 576.94 1099.14 649.57 1494.27 649.57 1514.55 576.94 1514.55 568.27"/><line class="cls-3" x1="1078.87" y1="110.69" x2="1078.87" y2="198.52"/><line class="cls-3" x1="999.99" y1="488.97" x2="1078.73" y2="488.97"/><line class="cls-3" x1="1514.55" y1="489.05" x2="1514.55" y2="570.94"/><line class="cls-3" x1="1514.4" y1="198.52" x2="1593.14" y2="198.52"/><rect class="cls-4" x="1923.39" y="198.52" width="550.8" height="270"/><line class="cls-3" x1="2103.32" y1="468.52" x2="2103.32" y2="198.52"/><line class="cls-3" x1="2294.47" y1="198.52" x2="2294.47" y2="468.52"/><line class="cls-3" x1="2204.63" y1="468.52" x2="2204.63" y2="198.52"/><line class="cls-3" x1="2193.29" y1="468.52" x2="2193.29" y2="198.52"/></svg>