<?xml version="1.0" standalone="no"?>
<!DOCTYPE svg PUBLIC "-//W3C//DTD SVG 1.1//EN"
  "http://www.w3.org/Graphics/SVG/1.1/DTD/svg11.dtd">
<svg width="29.98400115966797mm" height="59.149000167846665mm" viewBox="-35.48400115966797 -40.49999999999999 29.98400115966797 59.149000167846665" xmlns="http://www.w3.org/2000/svg" version="1.1">
	<title>svgOutput</title>
	<desc>made with tinkercad</desc>
<path d="M -9.493000030517578 -34.248001098632805 L -9.127848625183105 -34.12922286987304 L -7.919000148773193 -33.73600006103515 L -6.876999855041504 -33.397998809814446 L -6.5 -33.2750015258789 L -6.658712863922119 -32.76800155639648 L -7.723999977111816 -29.364999771118157 L -8.848999977111816 -25.413000106811516 L -9.87399959564209 -21.42000007629394 L -10.79699993133545 -17.385999679565426 L -10.999024391174316 -16.38400077819824 L -11.564973831176758 -13.576999664306637 L -11.618000030517578 -13.314000129699703 L -12.333000183105469 -9.206000328063963 L -12.942999839782715 -5.061999797821044 L -13.444999694824219 -0.883000016212463 L -13.527427673339844 1.1102230246251565e-16 L -13.838000297546387 3.326999902725219 L -14.119999885559082 7.568999767303465 L -14.289999961853027 11.840000152587889 L -14.347000122070312 16.065862655639645 L -14.347999572753906 16.139999389648434 L -14.347999572753906 16.26600074768066 L -14.347000122070312 16.392000198364254 L -14.347000122070312 16.51899909973144 L -14.345999717712402 16.64399909973144 L -14.343999862670898 16.895999908447262 L -14.343000411987305 17.020999908447262 L -14.342000007629395 17.146999359130856 L -14.338000297546387 17.649000167846676 L -14.347000122070312 17.649000167846676 L -14.347999572753906 17.649000167846676 L -14.368353843688965 17.649000167846676 L -14.521217346191406 17.649000167846676 L -14.790099143981934 17.649000167846676 L -26.555999755859375 17.649000167846676 L -32.768001556396484 17.649000167846676 L -34.47395324707031 17.649000167846676 L -34.4739990234375 17.649000167846676 L -34.47999954223633 16.892999649047848 L -34.48099899291992 16.767999649047848 L -34.481998443603516 16.642000198364254 L -34.483001708984375 16.517000198364254 L -34.483001708984375 16.51600074768066 L -34.483001708984375 16.39100074768066 L -34.48400115966797 16.26600074768066 L -34.48400115966797 16.139999389648434 L -34.483001708984375 16.06435966491699 L -34.41999816894531 11.298999786376951 L -34.22800064086914 6.48899984359741 L -33.9109992980957 1.7130000591278072 L -33.750938415527344 1.1102230246251565e-16 L -33.46799850463867 -3.0280001163482657 L -32.90399932861328 -7.7319998741149885 L -32.21900177001953 -12.397999763488766 L -31.52536964416504 -16.38400077819824 L -31.413999557495117 -17.024000167846676 L -30.490999221801758 -21.608999252319332 L -29.452999114990234 -26.15099906921386 L -28.299999237060547 -30.646999359130852 L -27.69672203063965 -32.76800155639648 L -27.034000396728516 -35.0979995727539 L -25.659900665283203 -39.49072647094726 L -25.656999588012695 -39.49999999999999 L -25.280000686645508 -39.377998352050774 L -24.238000869750977 -39.03900146484374 L -22.663000106811523 -38.52700042724609 L -20.690000534057617 -37.886001586914055 L -18.451000213623047 -37.15900039672851 L -13.706000328063965 -35.61700057983398 L -13.692312240600586 -35.61254882812499 L -11.467000007629395 -34.88899993896484 L -9.944939613342285 -34.394756317138665 L -9.493000030517578 -34.248001098632805 M -23.628000259399414 -16.465000152587887 L -23.652769088745117 -16.38400077819824 L -23.812999725341797 -15.859999656677243 L -23.802000045776367 -15.22799968719482 L -23.59600067138672 -14.630000114440914 L -23.215999603271484 -14.124999999999996 L -22.69700050354004 -13.762000083923336 L -22.091999053955078 -13.576999664306637 L -21.597999572753906 -13.585597991943356 L -21.459999084472656 -13.588000297546383 L -20.86199951171875 -13.793999671936032 L -20.35700035095215 -14.17399978637695 L -19.993999481201172 -14.692999839782711 L -19.80900001525879 -15.298000335693356 L -19.81999969482422 -15.930000305175778 L -19.976394653320312 -16.38400077819824 L -20.025999069213867 -16.527999877929684 L -20.406999588012695 -17.03300094604492 L -20.924999237060547 -17.395999908447262 L -21.530000686645508 -17.580999374389645 L -22.16200065612793 -17.569999694824215 L -22.760000228881836 -17.364000320434567 L -23.264999389648438 -16.98299980163574 L -23.628000259399414 -16.465000152587887 M -21.0939998626709 -27.6550006866455 L -21.27899932861328 -27.04999923706054 L -21.26799964904785 -26.417999267578118 L -21.062000274658203 -25.819000244140618 L -20.680999755859375 -25.313999176025384 L -20.479999542236328 -25.173145294189446 L -20.163000106811523 -24.95100021362304 L -19.80900001525879 -24.842752456665032 L -19.558000564575195 -24.766000747680657 L -18.926000595092773 -24.77799987792968 L -18.32699966430664 -24.982999801635735 L -17.82200050354004 -25.364000320434563 L -17.458999633789062 -25.881999969482415 L -17.27400016784668 -26.486999511718743 L -17.28499984741211 -27.12000083923339 L -17.490999221801758 -27.718000411987298 L -17.871999740600586 -28.2229995727539 L -18.389999389648438 -28.586000442504876 L -18.67124366760254 -28.67200088500976 L -18.9950008392334 -28.77099990844726 L -19.628000259399414 -28.76000022888183 L -19.80900001525879 -28.697649002075188 L -19.88345718383789 -28.67200088500976 L -20.22599983215332 -28.55400085449218 L -20.479999542236328 -28.362367630004876 L -20.731000900268555 -28.173000335693352 L -21.0939998626709 -27.6550006866455 M -24.219999313354492 -1.9600000381469722 L -23.60099983215332 -1.8619999885559078 L -22.98200035095215 -1.9600000381469722 L -22.423999786376953 -2.2439999580383296 L -21.981000900268555 -2.6870000362396236 L -21.695999145507812 -3.246000051498412 L -21.597999572753906 -3.8640000820159903 L -21.634729385375977 -4.09600019454956 L -21.695999145507812 -4.482999801635741 L -21.981000900268555 -5.040999889373778 L -22.423999786376953 -5.4840002059936515 L -22.98200035095215 -5.769000053405761 L -23.60099983215332 -5.867000102996825 L -24.219999313354492 -5.769000053405761 L -24.777999877929688 -5.4840002059936515 L -25.22100067138672 -5.040999889373778 L -25.5049991607666 -4.482999801635741 L -25.566268920898438 -4.09600019454956 L -25.60300064086914 -3.8640000820159903 L -25.5049991607666 -3.246000051498412 L -25.22100067138672 -2.6870000362396236 L -24.777999877929688 -2.2439999580383296 L -24.219999313354492 -1.9600000381469722 M -25.172000885009766 9.473999977111815 L -24.55299949645996 9.57199954986572 L -23.934999465942383 9.473999977111815 L -23.375999450683594 9.189000129699705 L -22.933000564575195 8.74600028991699 L -22.65103530883789 8.19200038909912 L -22.64900016784668 8.187999725341795 L -22.551000595092773 7.568999767303465 L -22.64900016784668 6.949999809265135 L -22.933000564575195 6.392000198364256 L -23.375999450683594 5.948999881744384 L -23.934999465942383 5.6649999618530265 L -24.55299949645996 5.566999912261962 L -25.172000885009766 5.6649999618530265 L -25.729999542236328 5.948999881744384 L -26.17300033569336 6.392000198364256 L -26.45800018310547 6.949999809265135 L -26.555999755859375 7.568999767303465 L -26.45800018310547 8.187999725341795 L -26.455957412719727 8.19200038909912 L -26.17300033569336 8.74600028991699 L -25.729999542236328 9.189000129699705 L -25.172000885009766 9.473999977111815 z" fill="none" stroke="rgb(255,0,0)" stroke-width="0.001mm" />
</svg>