<?xml version="1.0" encoding="utf-8"?>
<!-- Generator: Adobe Illustrator 26.0.1, SVG Export Plug-In . SVG Version: 6.00 Build 0)  -->
<svg version="1.1" id="Layer_1" xmlns="http://www.w3.org/2000/svg" xmlns:xlink="http://www.w3.org/1999/xlink" x="0px" y="0px"
	 viewBox="0 0 434.8 419.5" style="enable-background:new 0 0 434.8 419.5;" xml:space="preserve">
<style type="text/css">
	.st0{fill:none;stroke:#231F20;stroke-width:0.25;stroke-miterlimit:11.3386;}
</style>
<desc>made with tinkercad</desc>
<path class="st0" d="M418.3,20.4l-4.6-4l-0.5-0.4l-6.4-2.8h-37.2h-44.1h-44.1h-44.1H193h-44.1h-44.1H60.7H26.9l-0.7,0.1l-5.6,3.3
	l-4.4,5.1l-2.7,6v28.1V100v44.1v22.1v11v5.5v5.5v5.5v5.5v11v22.1v44.1v44.1v44.1V392l0.3,1.4l3.3,5.6l5.1,4.4l6.5,2.8l1.1,0.2h30.8
	h22.1h11h11h11h11h22.1H171H193h11h11h11h11h22.1h11h11h11h11h22.1h11h11h22.1h37.9l1.7-0.3l4.5-2.6l1.1-0.6l4.4-5.1l2-4.6v-28.3
	v-88.2v-44.1v-22.1v-11v-6.6v-4.5v-7.7v-1.4v-2v-11v-22.1V100V25.3L418.3,20.4z M194.8,233v25.5v6.4v4.1h-5.2h-6.4h-6.4h-6.4h-6.2h0
	h-6.6h-6.4h-6.4h-3.1h0h-9.7h-12.8h-15.1v-1v-9.5V233v-24.1h40.6h49.9V233z M330.5,213.8v6.4V233v12.8v12.8v10.7h-20.4h-12.8h-1.8
	h-4.8h-4.7h-1.5h-12.8h0h0h-6.4H259h-6.4h-6.4H240v-4.3v-6.4v-6.4v-6.4V233v-23.9h44.6h25.5h12.8h6.4h1.2V213.8z"/>
</svg>
