<svg id="Layer_1" data-name="Layer 1" xmlns="http://www.w3.org/2000/svg" viewBox="0 0 4343.68 792.25"><defs><style>.cls-1,.cls-2,.cls-3,.cls-4,.cls-5,.cls-6,.cls-7,.cls-8,.cls-9{fill:none;stroke-miterlimit:10;}.cls-1,.cls-3,.cls-6,.cls-7{stroke:#ed1c24;}.cls-1,.cls-2{stroke-width:0.25px;}.cls-2,.cls-4,.cls-5,.cls-8,.cls-9{stroke:#231f20;}.cls-3,.cls-4{stroke-width:0.25px;}.cls-5,.cls-6{stroke-width:0.25px;}.cls-7,.cls-8{stroke-width:0.26px;}.cls-9{stroke-width:0.09px;}</style></defs><line class="cls-1" x1="200.38" y1="147.78" x2="625.04" y2="147.78"/><line class="cls-1" x1="200.38" y1="627.87" x2="625.04" y2="627.87"/><line class="cls-1" x1="98.83" y1="249.27" x2="98.83" y2="526.22"/><line class="cls-1" x1="726.58" y1="249.27" x2="726.58" y2="526.22"/><rect class="cls-1" x="200.38" y="249.27" width="424.66" height="276.95"/><line class="cls-1" x1="98.83" y1="526.22" x2="200.38" y2="526.22"/><line class="cls-1" x1="625.04" y1="249.27" x2="726.58" y2="249.27"/><line class="cls-1" x1="200.38" y1="147.78" x2="200.38" y2="249.33"/><path class="cls-2" d="M845.08,541.39V304.61l-98.71-20.09h-9.23V228.18H654.05v56.34h-9.23V183L624.74,84.38H240.25L220.16,183v9.2H163.8v83.09h56.36v9.2H118.62L19.91,304.61V541.39l98.71,20.08h9.23v56.7h83.08v-56.7h9.23V663.12l20.09,98.8H624.74l20.08-98.8v-9h56.37V571H644.82v-9.56H746.37Z" transform="translate(-19.79 -35.25)"/><line class="cls-1" x1="625.04" y1="526.22" x2="625.04" y2="627.77"/><line class="cls-3" x1="1602.98" y1="537.97" x2="1602.98" y2="247.52"/><rect class="cls-3" x="1078.73" y="247.52" width="435.68" height="290.45"/><line class="cls-3" x1="1514.55" y1="625.95" x2="1078.87" y2="625.95"/><line class="cls-3" x1="1514.55" y1="159.86" x2="1078.87" y2="159.86"/><line class="cls-3" x1="990.15" y1="247.52" x2="990.15" y2="537.97"/><polygon class="cls-4" points="1514.55 617.27 1571.03 617.27 1571.03 548.07 1514.55 548.07 1514.55 538.05 1514.4 537.97 1602.98 537.97 1672.6 517.62 1672.6 267.8 1602.98 247.52 1593.63 247.52 1593.63 191.91 1524.43 191.91 1524.43 247.52 1514.4 247.52 1514.55 247.45 1514.55 159.86 1494.27 86.92 1099.14 86.92 1078.87 159.86 1078.87 168.28 1022.25 168.28 1022.25 237.48 1078.87 237.48 1078.87 247.45 1078.73 247.52 990.15 247.52 920.53 267.8 920.53 517.62 990.15 537.97 999.43 537.97 999.43 594.6 1068.63 594.6 1068.63 537.97 1078.73 537.97 1078.87 538.05 1078.87 625.95 1099.14 698.58 1494.27 698.58 1514.55 625.95 1514.55 617.27"/><line class="cls-3" x1="1078.87" y1="159.69" x2="1078.87" y2="247.52"/><line class="cls-3" x1="999.99" y1="537.97" x2="1078.73" y2="537.97"/><line class="cls-3" x1="1514.55" y1="538.05" x2="1514.55" y2="619.94"/><line class="cls-3" x1="1514.4" y1="247.52" x2="1593.14" y2="247.52"/><rect class="cls-5" x="1910.79" y="27.35" width="576" height="270"/><line class="cls-6" x1="2094.32" y1="297.35" x2="2094.32" y2="27.35"/><line class="cls-6" x1="2303.47" y1="27.35" x2="2303.47" y2="297.35"/><line class="cls-6" x1="2204.63" y1="297.35" x2="2204.63" y2="27.35"/><line class="cls-6" x1="2193.29" y1="297.35" x2="2193.29" y2="27.35"/><rect class="cls-5" x="1910.79" y="349.26" width="576" height="406.8"/><line class="cls-6" x1="2094.32" y1="759.66" x2="2094.32" y2="345.66"/><line class="cls-6" x1="2303.47" y1="345.66" x2="2303.47" y2="759.66"/><line class="cls-6" x1="2204.63" y1="759.66" x2="2204.63" y2="345.66"/><line class="cls-6" x1="2193.29" y1="759.66" x2="2193.29" y2="345.66"/><line class="cls-6" x1="3738.64" y1="82.24" x2="4157.44" y2="82.24"/><line class="cls-6" x1="3738.64" y1="710.54" x2="4157.44" y2="710.54"/><line class="cls-6" x1="3634.28" y1="187.26" x2="3634.28" y2="605.37"/><line class="cls-6" x1="4261.79" y1="187.26" x2="4261.79" y2="605.37"/><rect class="cls-6" x="3738.64" y="187.26" width="418.8" height="418.11"/><line class="cls-6" x1="3634.28" y1="605.37" x2="3738.64" y2="605.37"/><line class="cls-6" x1="4157.44" y1="187.26" x2="4261.79" y2="187.26"/><line class="cls-6" x1="3738.64" y1="82.24" x2="3738.64" y2="187.31"/><path class="cls-5" d="M4363.34,620V241.77l-81.76-20h-9.1v-56h-86.15v56h-9.1v-105l-19.81-81.44H3778.23l-19.81,81.44V126h-55.58v86.73h55.58v9.14H3654.07l-82.73,20V620l82.73,19.95h9.1v56.32h86.15V639.93h9.1V745.1l19.81,82.27h379.19l19.81-82.27v-8.94h55.58V649.43h-55.58v-9.5h104.35Z" transform="translate(-19.79 -35.25)"/><line class="cls-6" x1="4157.44" y1="605.37" x2="4157.44" y2="710.44"/><line class="cls-7" x1="2847.57" y1="88.95" x2="3280.54" y2="88.95"/><line class="cls-7" x1="2847.57" y1="703.85" x2="3280.54" y2="703.85"/><line class="cls-7" x1="2757.04" y1="180.18" x2="2757.04" y2="612.47"/><line class="cls-7" x1="3371.07" y1="180.18" x2="3371.07" y2="612.47"/><rect class="cls-7" x="2847.57" y="180.18" width="432.96" height="432.29"/><line class="cls-7" x1="2757.04" y1="612.47" x2="2847.57" y2="612.47"/><line class="cls-7" x1="3280.54" y1="180.18" x2="3371.07" y2="180.18"/><line class="cls-7" x1="2847.57" y1="88.95" x2="2847.57" y2="180.23"/><path class="cls-8" d="M3471.48,626.38v-391l-80.62-20.62h-5.41V156.86h-75.71v57.86h-9.42V123.49L3279.85,43.2h-392l-20.48,80.29V133h-57.47v72.32h57.47v9.45h-90.53l-81.63,20.62v391L2776.83,647h9.41v58.22H2858V647h9.41v91.38l20.48,81.16h392l20.47-81.16v-9.25h57.47V656.82h-57.47V647h90.54Z" transform="translate(-19.79 -35.25)"/><line class="cls-7" x1="3280.54" y1="612.47" x2="3280.54" y2="703.75"/><polyline class="cls-7" points="3178.43 386.69 3164.6 386.69 3134.1 386.69 3086.2 386.69 3080.89 386.69 3080.89 388.2 3080.89 415.33 3080.89 430.63 3080.89 435.86 3080.89 438.28 3080.89 443.95 3080.89 444.45 3080.89 445.93 3080.89 453.58 3080.89 453.99 3080.89 458.7 3082.49 458.7 3082.78 458.7 3088.36 458.7 3090.65 458.7 3095.98 458.7 3103.6 458.7 3111.23 458.7 3117.9 458.7 3118.21 458.7 3118.84 458.7 3118.85 458.7 3118.85 458.7 3118.86 458.7 3123.9 458.7 3134.1 458.7 3141.55 458.7 3147.26 458.7 3149.35 458.7 3155.49 458.7 3160.52 458.7 3164.6 458.7 3172.54 458.7 3172.55 458.7 3178.18 458.7 3183.89 458.7 3188.94 458.7 3188.94 445.93 3188.94 432.74 3188.94 430.63 3188.94 415.33 3188.94 400.03 3188.94 392.38 3188.94 389.51 3188.94 388.54 3188.94 388.46 3188.94 388.44 3188.94 386.69 3187.48 386.69 3179.85 386.69 3178.43 386.69"/><polygon class="cls-7" points="3008.23 386.69 2985.68 386.69 2937.2 386.69 2937.2 415.51 2937.2 446.11 2937.2 458.71 2955.18 458.71 2958.42 458.71 2967.07 458.71 2985.68 458.71 2993.31 458.71 3000.93 458.71 3009.94 458.71 3016.18 458.71 3023.8 458.71 3031.43 458.71 3039.05 458.71 3045.25 458.71 3045.25 453.76 3045.25 446.11 3045.25 432.92 3045.25 415.51 3045.25 388.38 3045.25 386.69 3033.44 386.69 3019.97 386.69 3008.23 386.69"/><rect class="cls-9" x="3371.07" y="262.96" width="13.64" height="104.35"/></svg>